<?xml version="1.0" encoding="UTF-8" standalone="no"?>
<!DOCTYPE svg PUBLIC "-//W3C//DTD SVG 1.1//EN" "http://www.w3.org/Graphics/SVG/1.1/DTD/svg11.dtd">
<svg xmlns="http://www.w3.org/2000/svg" xmlns:xlink="http://www.w3.org/1999/xlink" version="1.1" width="574.0557pt" height="246.85039pt" viewBox="0 0 574.0557 246.85039">
<g enable-background="new">
<g>
<path transform="matrix(1,0,0,.97533,0,0)" d="M 127.461 184.625 L 117.492 184.625 L 117.492 162.501 C 115.574 165.076 113.469 167.543 111.18 169.902 C 99.281 181.781 84.906 187.717 68.055 187.717 C 51.281 187.717 36.949 181.785 25.055 169.918 C 13.156 158.043 7.211 143.733 7.211 126.984 C 7.211 110.163 13.156 95.817 25.055 83.938 C 36.949 72.063 51.281 66.123 68.055 66.123 C 84.906 66.123 99.281 72.063 111.18 83.938 C 113.469 86.301 115.574 88.772 117.492 91.355 L 117.492 7.602 L 127.461 7.602 Z M 117.492 136.821 L 117.492 117.132 C 115.648 107.404 111.027 98.849 103.633 91.467 C 93.809 81.655 81.949 76.745 68.055 76.745 C 54.168 76.745 42.309 81.655 32.477 91.467 C 22.652 101.272 17.742 113.111 17.742 126.984 C 17.742 140.85 22.652 152.665 32.477 162.437 C 42.309 172.209 54.168 177.095 68.055 177.095 C 81.949 177.095 93.809 172.193 103.633 162.389 C 111.027 155.012 115.648 146.489 117.492 136.821 Z M 117.492 136.821 " fill="#f6b726"/>
<path transform="matrix(1,0,0,.97533,0,0)" stroke-width="14.580976" stroke-linecap="butt" stroke-miterlimit="4" stroke-linejoin="miter" fill="none" stroke="#f6b726" d="M 127.461 184.625 L 117.492 184.625 L 117.492 162.501 C 115.574 165.076 113.469 167.543 111.18 169.902 C 99.281 181.781 84.906 187.717 68.055 187.717 C 51.281 187.717 36.949 181.785 25.055 169.918 C 13.156 158.043 7.211 143.733 7.211 126.984 C 7.211 110.163 13.156 95.817 25.055 83.938 C 36.949 72.063 51.281 66.123 68.055 66.123 C 84.906 66.123 99.281 72.063 111.18 83.938 C 113.469 86.301 115.574 88.772 117.492 91.355 L 117.492 7.602 L 127.461 7.602 Z M 117.492 136.821 L 117.492 117.132 C 115.648 107.404 111.027 98.849 103.633 91.467 C 93.809 81.655 81.949 76.745 68.055 76.745 C 54.168 76.745 42.309 81.655 32.477 91.467 C 22.652 101.272 17.742 113.111 17.742 126.984 C 17.742 140.85 22.652 152.665 32.477 162.437 C 42.309 172.209 54.168 177.095 68.055 177.095 C 81.949 177.095 93.809 172.193 103.633 162.389 C 111.027 155.012 115.648 146.489 117.492 136.821 Z M 117.492 136.821 "/>
<path transform="matrix(.956879,0,0,1,0,0)" d="M 464.343 70.277 L 474.957 70.277 L 474.957 86.574 C 476.917 83.898 479.154 81.301 481.668 78.777 C 494.315 66.176 509.563 59.871 527.406 59.871 C 545.323 59.871 560.587 66.195 573.193 78.84 C 585.807 91.488 592.119 106.789 592.119 124.746 C 592.119 142.633 585.807 157.918 573.193 170.605 C 560.587 183.285 545.323 189.621 527.406 189.621 C 509.563 189.621 494.315 183.277 481.668 170.59 C 479.154 168.07 476.917 165.473 474.957 162.793 L 474.957 230.621 L 464.343 230.621 Z M 474.957 113.637 L 474.957 135.855 C 476.99 146.012 481.864 154.949 489.572 162.668 C 500.022 173.148 512.632 178.387 527.406 178.387 C 542.176 178.387 554.79 173.152 565.241 162.684 C 575.691 152.207 580.917 139.559 580.917 124.746 C 580.917 109.934 575.691 97.293 565.241 86.824 C 554.79 76.348 542.176 71.105 527.406 71.105 C 512.632 71.105 500.022 76.34 489.572 86.809 C 481.864 94.527 476.99 103.473 474.957 113.637 Z M 474.957 113.637 " fill="#f6b726"/>
<path transform="matrix(.956879,0,0,1,0,0)" stroke-width="14.720885" stroke-linecap="butt" stroke-miterlimit="4" stroke-linejoin="miter" fill="none" stroke="#f6b726" d="M 464.343 70.277 L 474.957 70.277 L 474.957 86.574 C 476.917 83.898 479.154 81.301 481.668 78.777 C 494.315 66.176 509.563 59.871 527.406 59.871 C 545.323 59.871 560.587 66.195 573.193 78.84 C 585.807 91.488 592.119 106.789 592.119 124.746 C 592.119 142.633 585.807 157.918 573.193 170.605 C 560.587 183.285 545.323 189.621 527.406 189.621 C 509.563 189.621 494.315 183.277 481.668 170.59 C 479.154 168.07 476.917 165.473 474.957 162.793 L 474.957 230.621 L 464.343 230.621 Z M 474.957 113.637 L 474.957 135.855 C 476.99 146.012 481.864 154.949 489.572 162.668 C 500.022 173.148 512.632 178.387 527.406 178.387 C 542.176 178.387 554.79 173.152 565.241 162.684 C 575.691 152.207 580.917 139.559 580.917 124.746 C 580.917 109.934 575.691 97.293 565.241 86.824 C 554.79 76.348 542.176 71.105 527.406 71.105 C 512.632 71.105 500.022 76.34 489.572 86.809 C 481.864 94.527 476.99 103.473 474.957 113.637 Z M 474.957 113.637 "/>
<path stroke-width="27.2" stroke-linecap="round" stroke-miterlimit="4" stroke-linejoin="miter" fill="none" stroke="#f6b726" d="M 167.223 150.648 L 236.953 76.758 "/>
<path stroke-width="27.2" stroke-linecap="butt" stroke-miterlimit="4" stroke-linejoin="miter" fill="none" stroke="#f6b726" d="M 323.711 159.445 L 398.543 80.008 "/>
<path transform="matrix(1,0,0,.959467,0,0)" stroke-width="28.585312" stroke-linecap="round" stroke-linejoin="round" fill="none" stroke="#444f9c" d="M 307.133 42.989 C 284.098 8.542 224.797 28.971 236.629 79.63 C 195.188 43.709 150.57 88.395 152.527 128.176 C 153.141 145.658 165.883 180.52 211.945 182.047 C 220.926 181.493 231.883 178.505 242.504 168.595 L 322.266 81.706 C 326.398 78.62 334.934 66.451 353.477 64.371 C 372.844 62.201 388.25 68.369 397.121 76.426 C 397.121 76.426 422.102 92.544 417.965 129.393 C 417.09 169.035 368.25 205.961 324.781 165.656 "/>
<path transform="matrix(1,0,0,-1,0,246.85039)" d="M 8.766 45.386 L 13.5 45.386 L 13.5 31.042 L 30.703 31.042 L 30.703 45.386 L 35.438 45.386 L 35.438 10.386 L 30.703 10.386 L 30.703 27.057 L 13.5 27.057 L 13.5 10.386 L 8.766 10.386 Z M 8.766 45.386 " fill="#444f9c"/>
<path transform="matrix(1,0,0,-1,0,246.85039)" d="M 55.594 7.948 C 54.375 4.823 53.188 2.788 52.031 1.839 C 50.875 .882 49.328 .401 47.391 .401 L 43.938 .401 L 43.938 4.011 L 46.469 4.011 C 47.656 4.011 48.578 4.292 49.234 4.854 C 49.891 5.417 50.617 6.745 51.422 8.839 L 52.188 10.807 L 41.578 36.636 L 46.141 36.636 L 54.344 16.104 L 62.547 36.636 L 67.125 36.636 Z M 55.594 7.948 " fill="#444f9c"/>
<path transform="matrix(1,0,0,-1,0,246.85039)" d="M 91.922 23.495 C 91.922 26.659 91.266 29.143 89.953 30.948 C 88.648 32.761 86.859 33.667 84.578 33.667 C 82.297 33.667 80.504 32.761 79.203 30.948 C 77.898 29.143 77.25 26.659 77.25 23.495 C 77.25 20.315 77.898 17.827 79.203 16.026 C 80.504 14.221 82.297 13.323 84.578 13.323 C 86.859 13.323 88.648 14.221 89.953 16.026 C 91.266 17.827 91.922 20.315 91.922 23.495 Z M 77.25 32.651 C 78.156 34.214 79.297 35.374 80.672 36.136 C 82.055 36.893 83.711 37.276 85.641 37.276 C 88.828 37.276 91.414 36.011 93.406 33.479 C 95.395 30.948 96.391 27.62 96.391 23.495 C 96.391 19.37 95.395 16.034 93.406 13.495 C 91.414 10.964 88.828 9.698 85.641 9.698 C 83.711 9.698 82.055 10.081 80.672 10.839 C 79.297 11.596 78.156 12.761 77.25 14.323 L 77.25 10.386 L 72.906 10.386 L 72.906 46.854 L 77.25 46.854 Z M 77.25 32.651 " fill="#444f9c"/>
<path transform="matrix(1,0,0,-1,0,246.85039)" d="M 118.75 32.604 C 118.27 32.886 117.742 33.093 117.172 33.229 C 116.598 33.362 115.969 33.432 115.281 33.432 C 112.844 33.432 110.973 32.636 109.672 31.042 C 108.367 29.456 107.719 27.182 107.719 24.214 L 107.719 10.386 L 103.375 10.386 L 103.375 36.636 L 107.719 36.636 L 107.719 32.557 C 108.625 34.151 109.801 35.331 111.25 36.104 C 112.707 36.886 114.473 37.276 116.547 37.276 C 116.848 37.276 117.176 37.253 117.531 37.214 C 117.895 37.171 118.297 37.112 118.734 37.042 Z M 118.75 32.604 " fill="#444f9c"/>
<path transform="matrix(1,0,0,-1,0,246.85039)" d="M 123.328 36.636 L 127.641 36.636 L 127.641 10.386 L 123.328 10.386 Z M 123.328 46.854 L 127.641 46.854 L 127.641 41.401 L 123.328 41.401 Z M 123.328 46.854 " fill="#444f9c"/>
<path transform="matrix(1,0,0,-1,0,246.85039)" d="M 153.906 32.651 L 153.906 46.854 L 158.219 46.854 L 158.219 10.386 L 153.906 10.386 L 153.906 14.323 C 153 12.761 151.852 11.596 150.469 10.839 C 149.094 10.081 147.438 9.698 145.5 9.698 C 142.32 9.698 139.738 10.964 137.75 13.495 C 135.758 16.034 134.766 19.37 134.766 23.495 C 134.766 27.62 135.758 30.948 137.75 33.479 C 139.738 36.011 142.32 37.276 145.5 37.276 C 147.438 37.276 149.094 36.893 150.469 36.136 C 151.852 35.374 153 34.214 153.906 32.651 Z M 139.219 23.495 C 139.219 20.315 139.867 17.827 141.172 16.026 C 142.473 14.221 144.266 13.323 146.547 13.323 C 148.828 13.323 150.625 14.221 151.938 16.026 C 153.25 17.827 153.906 20.315 153.906 23.495 C 153.906 26.659 153.25 29.143 151.938 30.948 C 150.625 32.761 148.828 33.667 146.547 33.667 C 144.266 33.667 142.473 32.761 141.172 30.948 C 139.867 29.143 139.219 26.659 139.219 23.495 Z M 139.219 23.495 " fill="#444f9c"/>
<path transform="matrix(1,0,0,-1,0,246.85039)" d="M 187.313 41.495 L 187.313 14.276 L 193.031 14.276 C 197.852 14.276 201.383 15.37 203.625 17.557 C 205.875 19.745 207 23.198 207 27.917 C 207 32.604 205.875 36.034 203.625 38.214 C 201.383 40.401 197.852 41.495 193.031 41.495 Z M 182.578 45.386 L 192.297 45.386 C 199.078 45.386 204.051 43.971 207.219 41.151 C 210.395 38.327 211.984 33.917 211.984 27.917 C 211.984 21.886 210.391 17.452 207.203 14.62 C 204.016 11.796 199.047 10.386 192.297 10.386 L 182.578 10.386 Z M 182.578 45.386 " fill="#444f9c"/>
<path transform="matrix(1,0,0,-1,0,246.85039)" d="M 231.25 23.589 C 227.77 23.589 225.359 23.186 224.016 22.386 C 222.672 21.593 222 20.233 222 18.307 C 222 16.776 222.5 15.561 223.5 14.667 C 224.508 13.768 225.883 13.323 227.625 13.323 C 230.008 13.323 231.926 14.167 233.375 15.854 C 234.82 17.55 235.547 19.807 235.547 22.62 L 235.547 23.589 Z M 239.859 25.37 L 239.859 10.386 L 235.547 10.386 L 235.547 14.37 C 234.555 12.776 233.328 11.596 231.859 10.839 C 230.391 10.081 228.594 9.698 226.469 9.698 C 223.781 9.698 221.645 10.452 220.063 11.964 C 218.477 13.471 217.688 15.495 217.688 18.026 C 217.688 20.983 218.672 23.214 220.641 24.714 C 222.617 26.214 225.57 26.964 229.5 26.964 L 235.547 26.964 L 235.547 27.386 C 235.547 29.362 234.891 30.893 233.578 31.979 C 232.273 33.073 230.445 33.62 228.094 33.62 C 226.594 33.62 225.129 33.436 223.703 33.073 C 222.285 32.718 220.922 32.182 219.609 31.464 L 219.609 35.448 C 221.18 36.05 222.707 36.503 224.188 36.807 C 225.676 37.12 227.125 37.276 228.531 37.276 C 232.332 37.276 235.172 36.292 237.047 34.323 C 238.922 32.354 239.859 29.37 239.859 25.37 Z M 239.859 25.37 " fill="#444f9c"/>
<path transform="matrix(1,0,0,-1,0,246.85039)" d="M 253.031 44.089 L 253.031 36.636 L 261.906 36.636 L 261.906 33.292 L 253.031 33.292 L 253.031 19.042 C 253.031 16.893 253.32 15.514 253.906 14.901 C 254.488 14.296 255.68 13.995 257.484 13.995 L 261.906 13.995 L 261.906 10.386 L 257.484 10.386 C 254.148 10.386 251.848 11.003 250.578 12.245 C 249.316 13.495 248.688 15.761 248.688 19.042 L 248.688 33.292 L 245.531 33.292 L 245.531 36.636 L 248.688 36.636 L 248.688 44.089 Z M 253.031 44.089 " fill="#444f9c"/>
<path transform="matrix(1,0,0,-1,0,246.85039)" d="M 279.531 23.589 C 276.051 23.589 273.641 23.186 272.297 22.386 C 270.953 21.593 270.281 20.233 270.281 18.307 C 270.281 16.776 270.781 15.561 271.781 14.667 C 272.789 13.768 274.164 13.323 275.906 13.323 C 278.289 13.323 280.207 14.167 281.656 15.854 C 283.102 17.55 283.828 19.807 283.828 22.62 L 283.828 23.589 Z M 288.141 25.37 L 288.141 10.386 L 283.828 10.386 L 283.828 14.37 C 282.836 12.776 281.609 11.596 280.141 10.839 C 278.672 10.081 276.875 9.698 274.75 9.698 C 272.063 9.698 269.926 10.452 268.344 11.964 C 266.758 13.471 265.969 15.495 265.969 18.026 C 265.969 20.983 266.953 23.214 268.922 24.714 C 270.898 26.214 273.852 26.964 277.781 26.964 L 283.828 26.964 L 283.828 27.386 C 283.828 29.362 283.172 30.893 281.859 31.979 C 280.555 33.073 278.727 33.62 276.375 33.62 C 274.875 33.62 273.41 33.436 271.984 33.073 C 270.566 32.718 269.203 32.182 267.891 31.464 L 267.891 35.448 C 269.461 36.05 270.988 36.503 272.469 36.807 C 273.957 37.12 275.406 37.276 276.813 37.276 C 280.613 37.276 283.453 36.292 285.328 34.323 C 287.203 32.354 288.141 29.37 288.141 25.37 Z M 288.141 25.37 " fill="#444f9c"/>
<path transform="matrix(1,0,0,-1,0,246.85039)" d="M 323.438 42.682 L 323.438 37.698 C 321.844 39.175 320.141 40.28 318.328 41.011 C 316.523 41.749 314.609 42.12 312.578 42.12 C 308.578 42.12 305.516 40.893 303.391 38.448 C 301.266 36.011 300.203 32.479 300.203 27.854 C 300.203 23.237 301.266 19.706 303.391 17.261 C 305.516 14.823 308.578 13.604 312.578 13.604 C 314.609 13.604 316.523 13.968 318.328 14.698 C 320.141 15.436 321.844 16.546 323.438 18.026 L 323.438 13.089 C 321.781 11.964 320.023 11.112 318.172 10.542 C 316.316 9.979 314.359 9.698 312.297 9.698 C 307.004 9.698 302.832 11.315 299.781 14.557 C 296.738 17.807 295.219 22.237 295.219 27.854 C 295.219 33.479 296.738 37.909 299.781 41.151 C 302.832 44.389 307.004 46.011 312.297 46.011 C 314.391 46.011 316.363 45.733 318.219 45.182 C 320.07 44.628 321.813 43.796 323.438 42.682 Z M 323.438 42.682 " fill="#444f9c"/>
<path transform="matrix(1,0,0,-1,0,246.85039)" d="M 330.609 46.854 L 334.922 46.854 L 334.922 10.384998 L 330.609 10.384998 Z " fill="#444f9c"/>
<path transform="matrix(1,0,0,-1,0,246.85039)" d="M 354.094 33.62 C 351.781 33.62 349.953 32.714 348.609 30.901 C 347.266 29.096 346.594 26.628 346.594 23.495 C 346.594 20.346 347.258 17.874 348.594 16.073 C 349.926 14.268 351.758 13.37 354.094 13.37 C 356.383 13.37 358.203 14.276 359.547 16.089 C 360.891 17.901 361.563 20.37 361.563 23.495 C 361.563 26.596 360.891 29.061 359.547 30.886 C 358.203 32.706 356.383 33.62 354.094 33.62 Z M 354.094 37.276 C 357.844 37.276 360.785 36.057 362.922 33.62 C 365.066 31.182 366.141 27.807 366.141 23.495 C 366.141 19.19 365.066 15.815 362.922 13.37 C 360.785 10.921 357.844 9.698 354.094 9.698 C 350.32 9.698 347.367 10.921 345.234 13.37 C 343.109 15.815 342.047 19.19 342.047 23.495 C 342.047 27.807 343.109 31.182 345.234 33.62 C 347.367 36.057 350.32 37.276 354.094 37.276 Z M 354.094 37.276 " fill="#444f9c"/>
<path transform="matrix(1,0,0,-1,0,246.85039)" d="M 372.813 20.745 L 372.813 36.636 L 377.125 36.636 L 377.125 20.917 C 377.125 18.425 377.609 16.561 378.578 15.323 C 379.547 14.081 381 13.464 382.938 13.464 C 385.27 13.464 387.109 14.202 388.453 15.682 C 389.805 17.171 390.484 19.198 390.484 21.761 L 390.484 36.636 L 394.797 36.636 L 394.797 10.386 L 390.484 10.386 L 390.484 14.417 C 389.441 12.823 388.227 11.636 386.844 10.854 C 385.457 10.085 383.852 9.698 382.031 9.698 C 379.008 9.698 376.719 10.636 375.156 12.511 C 373.594 14.393 372.813 17.139 372.813 20.745 Z M 383.672 37.276 Z M 383.672 37.276 " fill="#444f9c"/>
<path transform="matrix(1,0,0,-1,0,246.85039)" d="M 421 32.651 L 421 46.854 L 425.313 46.854 L 425.313 10.386 L 421 10.386 L 421 14.323 C 420.094 12.761 418.945 11.596 417.563 10.839 C 416.188 10.081 414.531 9.698 412.594 9.698 C 409.414 9.698 406.832 10.964 404.844 13.495 C 402.852 16.034 401.859 19.37 401.859 23.495 C 401.859 27.62 402.852 30.948 404.844 33.479 C 406.832 36.011 409.414 37.276 412.594 37.276 C 414.531 37.276 416.188 36.893 417.563 36.136 C 418.945 35.374 420.094 34.214 421 32.651 Z M 406.313 23.495 C 406.313 20.315 406.961 17.827 408.266 16.026 C 409.566 14.221 411.359 13.323 413.641 13.323 C 415.922 13.323 417.719 14.221 419.031 16.026 C 420.344 17.827 421 20.315 421 23.495 C 421 26.659 420.344 29.143 419.031 30.948 C 417.719 32.761 415.922 33.667 413.641 33.667 C 411.359 33.667 409.566 32.761 408.266 30.948 C 406.961 29.143 406.313 26.659 406.313 23.495 Z M 406.313 23.495 " fill="#444f9c"/>
</g>
</g>
</svg>
